<svg style="height: 512px; width: 512px;" xmlns="http://www.w3.org/2000/svg" viewBox="0 0 512 512"><circle cx="256" cy="256" r="240" fill="#a69b92" fill-opacity="1" stroke="#8c634a" stroke-opacity="1" stroke-width="16"></circle><g class="" style="" transform="translate(0,0)"><path d="m277.3 35.11-32.1 2.12-1 32.93 33.6.05-.5-35.1zM151.7 88.04 67.96 118.9 152 169.2l188-6.2 2.4-74.72-190.7-.24zM279.2 183l-38.3 1.3-.8 27.8 39.5 1.2-.4-30.3zm-93.1 45.6.8 64.2 200.4.9 51.7-29.2-55.8-30.2-197.1-5.7zm51.1 82.5-5 175.3 50.9.6-2.3-175.7-43.6-.2z" fill="#8c634a" fill-opacity="1" transform="translate(435.2, 76.8) scale(-0.7, 0.7) rotate(0, 256, 256) skewX(0) skewY(0)"></path></g><g class="" style="" transform="translate(256,256)"><g><circle cx="128" cy="128" r="128" fill="#000000" fill-opacity="1"></circle><circle stroke="#ffffff" stroke-opacity="1" fill="#000000" fill-opacity="1" stroke-width="18" cx="128" cy="128" r="101"></circle><path fill="#ffffff" fill-opacity="1" d="M85.43 63.64h80.97v23.95h-55v19.51q3.7-1 7.5-1.5 3.8-.6 7.8-.6 23.1 0 36 11.6 12.9 11.5 12.9 32.2 0 20.5-14.1 32.1-14 11.6-38.8 11.6-10.8 0-21.4-2.2-10.46-2-20.87-6.2v-25.7q10.33 6 19.55 8.9 9.32 3 17.52 3 11.9 0 18.6-5.8 6.9-5.8 6.9-15.7 0-10-6.9-15.8-6.7-5.7-18.6-5.7-7 0-15 1.8-7.93 1.8-17.07 5.6z"></path></g></g></svg>