<svg style="height: 512px; width: 512px;" xmlns="http://www.w3.org/2000/svg" viewBox="0 0 512 512"><circle cx="256" cy="256" r="240" fill="#a69b92" fill-opacity="1" stroke="#8c634a" stroke-opacity="1" stroke-width="16"></circle><g class="" style="" transform="translate(0,0)"><path d="m277.3 35.11-32.1 2.12-1 32.93 33.6.05-.5-35.1zM151.7 88.04 67.96 118.9 152 169.2l188-6.2 2.4-74.72-190.7-.24zM279.2 183l-38.3 1.3-.8 27.8 39.5 1.2-.4-30.3zm-93.1 45.6.8 64.2 200.4.9 51.7-29.2-55.8-30.2-197.1-5.7zm51.1 82.5-5 175.3 50.9.6-2.3-175.7-43.6-.2z" fill="#8c634a" fill-opacity="1" transform="translate(435.2, 76.8) scale(-0.7, 0.7) rotate(0, 256, 256) skewX(0) skewY(0)"></path></g><g class="" style="" transform="translate(256,256)"><g><circle cx="128" cy="128" r="128" fill="#000000" fill-opacity="1"></circle><circle stroke="#ffffff" stroke-opacity="1" fill="#000000" fill-opacity="1" stroke-width="18" cx="128" cy="128" r="101"></circle><path fill="#ffffff" fill-opacity="1" d="M131.6 91.67L95.88 144.6h35.72zm-5.4-26.83h36.2v79.76h18v23.6h-18v23h-30.8v-23H75.57v-28z"></path></g></g></svg>