<svg style="height: 512px; width: 512px;" xmlns="http://www.w3.org/2000/svg" viewBox="0 0 512 512"><circle cx="256" cy="256" r="240" fill="#a69b92" fill-opacity="1" stroke="#8c634a" stroke-opacity="1" stroke-width="16"></circle><g class="" style="" transform="translate(0,0)"><path d="m277.3 35.11-32.1 2.12-1 32.93 33.6.05-.5-35.1zM151.7 88.04 67.96 118.9 152 169.2l188-6.2 2.4-74.72-190.7-.24zM279.2 183l-38.3 1.3-.8 27.8 39.5 1.2-.4-30.3zm-93.1 45.6.8 64.2 200.4.9 51.7-29.2-55.8-30.2-197.1-5.7zm51.1 82.5-5 175.3 50.9.6-2.3-175.7-43.6-.2z" fill="#8c634a" fill-opacity="1" transform="translate(435.2, 76.8) scale(-0.7, 0.7) rotate(0, 256, 256) skewX(0) skewY(0)"></path></g><g class="" style="" transform="translate(256,256)"><g><circle cx="128" cy="128" r="128" fill="#000000" fill-opacity="1"></circle><circle stroke="#ffffff" stroke-opacity="1" fill="#000000" fill-opacity="1" stroke-width="18" cx="128" cy="128" r="101"></circle><path fill="#ffffff" fill-opacity="1" d="M128.1 134.6q-9.1 0-14 5t-4.9 14.3q0 9.3 4.9 14.3 4.9 4.9 14 4.9t13.9-4.9q4.8-5 4.8-14.3 0-9.4-4.8-14.3-4.8-5-13.9-5zm-23.8-10.8q-11.47-3.5-17.31-10.6-5.84-7.2-5.84-17.99 0-16 11.94-24.38 11.91-8.38 35.01-8.38 23 0 34.9 8.38 11.9 8.3 11.9 24.38 0 10.79-5.9 17.99-5.8 7.1-17.3 10.6 12.8 3.6 19.3 11.6 6.6 8 6.6 20.2 0 18.7-12.5 28.4-12.4 9.6-37 9.6T90.89 184q-12.53-9.7-12.53-28.4 0-12.2 6.52-20.2 6.6-8 19.42-11.6zm7.7-25.29q0 7.49 4.1 11.59 4.2 4.1 12 4.1 7.6 0 11.8-4.1 4.1-4.1 4.1-11.59 0-7.53-4.1-11.51-4.2-4.06-11.8-4.06-7.8 0-12 4.06-4.1 4.06-4.1 11.51z"></path></g></g></svg>