<svg style="height: 512px; width: 512px;" xmlns="http://www.w3.org/2000/svg" viewBox="0 0 512 512"><circle cx="256" cy="256" r="240" fill="#a69b92" fill-opacity="1" stroke="#8c634a" stroke-opacity="1" stroke-width="16"></circle><g class="" style="" transform="translate(0,0)"><path d="m277.3 35.11-32.1 2.12-1 32.93 33.6.05-.5-35.1zM151.7 88.04 67.96 118.9 152 169.2l188-6.2 2.4-74.72-190.7-.24zM279.2 183l-38.3 1.3-.8 27.8 39.5 1.2-.4-30.3zm-93.1 45.6.8 64.2 200.4.9 51.7-29.2-55.8-30.2-197.1-5.7zm51.1 82.5-5 175.3 50.9.6-2.3-175.7-43.6-.2z" fill="#8c634a" fill-opacity="1" transform="translate(435.2, 76.8) scale(-0.7, 0.7) rotate(0, 256, 256) skewX(0) skewY(0)"></path></g><g class="" style="" transform="translate(256,256)"><g><circle cx="128" cy="128" r="128" fill="#000000" fill-opacity="1"></circle><circle stroke="#ffffff" stroke-opacity="1" fill="#000000" fill-opacity="1" stroke-width="18" cx="128" cy="128" r="101"></circle><path fill="#ffffff" fill-opacity="1" d="M86.11 188.2v-23.3q7.78 3.6 14.89 5.5 7.1 1.7 14.1 1.7 14.5 0 22.6-8 8.2-8.1 9.6-24-5.8 4.2-12.3 6.3-6.5 2.1-14.1 2.1-19.4 0-31.32-11.2-11.85-11.4-11.85-29.8 0-20.42 13.2-32.69 13.27-12.28 35.57-12.28 24.7 0 38.2 16.68 13.6 16.67 13.6 47.09 0 31.4-15.9 49.3-15.8 17.9-43.4 17.9-8.9 0-17-1.4-8.11-1.3-15.89-3.9zm40.19-60.8q8.6 0 12.9-5.5 4.3-5.6 4.3-16.7 0-11.01-4.3-16.6-4.3-5.58-12.9-5.58-8.5 0-12.9 5.58-4.3 5.59-4.3 16.6 0 11.1 4.3 16.7 4.4 5.5 12.9 5.5z"></path></g></g></svg>