<svg style="height: 512px; width: 512px;" xmlns="http://www.w3.org/2000/svg" viewBox="0 0 512 512"><circle cx="256" cy="256" r="240" fill="#a69b92" fill-opacity="1" stroke="#8c634a" stroke-opacity="1" stroke-width="16"></circle><g class="" style="" transform="translate(0,0)"><path d="m277.3 35.11-32.1 2.12-1 32.93 33.6.05-.5-35.1zM151.7 88.04 67.96 118.9 152 169.2l188-6.2 2.4-74.72-190.7-.24zM279.2 183l-38.3 1.3-.8 27.8 39.5 1.2-.4-30.3zm-93.1 45.6.8 64.2 200.4.9 51.7-29.2-55.8-30.2-197.1-5.7zm51.1 82.5-5 175.3 50.9.6-2.3-175.7-43.6-.2z" fill="#8c634a" fill-opacity="1" transform="translate(435.2, 76.8) scale(-0.7, 0.7) rotate(0, 256, 256) skewX(0) skewY(0)"></path></g><g class="" style="" transform="translate(256,256)"><g><circle cx="128" cy="128" r="128" fill="#000000" fill-opacity="1"></circle><circle stroke="#ffffff" stroke-opacity="1" fill="#000000" fill-opacity="1" stroke-width="18" cx="128" cy="128" r="101"></circle><path fill="#ffffff" fill-opacity="1" d="M129.7 128.6q-8.6 0-12.9 5.6-4.2 5.5-4.2 16.6 0 11.1 4.2 16.7 4.3 5.5 12.9 5.5 8.6 0 12.9-5.5 4.3-5.6 4.3-16.7t-4.3-16.6q-4.3-5.6-12.9-5.6zM170 67.94V91.3q-8.1-3.81-15.2-5.59-7.1-1.86-13.8-1.86-14.6 0-22.7 8.13-8.2 8.02-9.5 23.92 5.6-4.1 12.1-6.1 6.5-2.2 14.2-2.2 19.4 0 31.2 11.4 12 11.3 12 29.7 0 20.3-13.3 32.6-13.3 12.2-35.6 12.2-24.7 0-38.21-16.6-13.46-16.7-13.46-47.3 0-31.28 15.74-49.13 15.83-17.95 43.33-17.95 8.7 0 16.9 1.36 8.2 1.35 16.3 4.06z"></path></g></g></svg>